<svg width="1044" height="400" viewBox="0 0 1044 400"
    xmlns="http://www.w3.org/2000/svg">
    <mask id="satori_om-id">
        <rect x="0" y="0" width="1044" height="400" fill="#fff"/>
    </mask>
    <rect x="0" y="0" width="1044" height="400" fill="white"/>
    <mask id="satori_om-id-0">
        <rect x="42" y="42" width="190" height="24" fill="#fff"/>
    </mask>
    <mask id="satori_om-id-0-0">
        <rect x="42" y="42" width="24" height="24" fill="#fff"/>
    </mask>
    <rect x="42" y="42" width="24" height="24" fill="black"/>
    <mask id="satori_om-id-0-1">
        <rect x="74" y="42" width="158" height="24" fill="#fff"/>
    </mask>
    <path fill="black" d="M78.2 54.4L78.2 54.4L78.2 60.7L75.2 60.7L75.2 49.8L78.1 49.8L78.1 51.7L78.2 51.7Q78.6 50.8 79.4 50.2Q80.3 49.7 81.5 49.7L81.5 49.7Q82.6 49.7 83.5 50.2Q84.3 50.7 84.8 51.6Q85.3 52.5 85.3 53.8L85.3 53.8L85.3 60.7L82.2 60.7L82.2 54.3Q82.2 53.3 81.7 52.7Q81.2 52.2 80.3 52.2L80.3 52.2Q79.7 52.2 79.2 52.4Q78.8 52.7 78.5 53.2Q78.2 53.7 78.2 54.4ZM94.3 56.1L94.3 56.1L94.3 49.8L97.3 49.8L97.3 60.7L94.4 60.7L94.4 58.7L94.3 58.7Q94.0 59.7 93.1 60.3Q92.2 60.9 91.0 60.9L91.0 60.9Q89.9 60.9 89.1 60.4Q88.3 59.9 87.8 59.0Q87.3 58.0 87.3 56.8L87.3 56.8L87.3 49.8L90.3 49.8L90.3 56.2Q90.4 57.2 90.9 57.7Q91.4 58.3 92.2 58.3L92.2 58.3Q92.8 58.3 93.3 58.1Q93.7 57.8 94.0 57.3Q94.3 56.8 94.3 56.1ZM98.8 49.8L102.0 49.8L104.0 53.6L106.0 49.8L109.1 49.8L106.0 55.3L109.2 60.7L106.1 60.7L104.0 56.9L101.9 60.7L98.7 60.7L102.0 55.3L98.8 49.8ZM109.8 49.8L116.4 49.8L116.4 52.1L109.8 52.1L109.8 49.8ZM111.3 57.8L111.3 47.2L114.3 47.2L114.3 57.4Q114.3 57.8 114.5 58.0Q114.6 58.2 114.8 58.3Q115.1 58.4 115.4 58.4L115.4 58.4Q115.6 58.4 115.8 58.4Q116.0 58.4 116.1 58.3L116.1 58.3L116.6 60.6Q116.4 60.7 116.0 60.8Q115.5 60.8 115.0 60.9L115.0 60.9Q113.9 60.9 113.0 60.6Q112.2 60.2 111.8 59.5Q111.3 58.8 111.3 57.8L111.3 57.8ZM117.9 53.5L124.5 53.5L124.5 55.9L117.9 55.9L117.9 53.5ZM131.7 60.9L131.7 60.9Q130.0 60.9 128.8 60.2Q127.6 59.5 127.0 58.2Q126.3 57.0 126.3 55.3L126.3 55.3Q126.3 53.6 127.0 52.4Q127.6 51.1 128.8 50.4Q130.0 49.7 131.7 49.7L131.7 49.7Q133.1 49.7 134.2 50.2Q135.3 50.7 135.9 51.6Q136.5 52.6 136.6 53.8L136.6 53.8L133.7 53.8Q133.6 53.0 133.1 52.5Q132.6 52.0 131.7 52.0L131.7 52.0Q131.0 52.0 130.5 52.4Q130.0 52.8 129.7 53.5Q129.4 54.2 129.4 55.3L129.4 55.3Q129.4 56.3 129.7 57.0Q130.0 57.8 130.5 58.2Q131.0 58.5 131.7 58.5L131.7 58.5Q132.3 58.5 132.7 58.3Q133.1 58.1 133.4 57.7Q133.6 57.3 133.7 56.7L133.7 56.7L136.6 56.7Q136.5 58.0 135.9 58.9Q135.3 59.9 134.2 60.4Q133.2 60.9 131.7 60.9ZM141.3 60.9L141.3 60.9Q140.3 60.9 139.5 60.6Q138.6 60.2 138.2 59.5Q137.7 58.8 137.7 57.7L137.7 57.7Q137.7 56.8 138.0 56.1Q138.4 55.5 138.9 55.2Q139.5 54.8 140.2 54.6Q141.0 54.4 141.8 54.3L141.8 54.3Q142.7 54.2 143.3 54.1Q143.9 54.0 144.2 53.9Q144.4 53.7 144.4 53.3L144.4 53.3L144.4 53.3Q144.4 52.6 144.0 52.2Q143.6 51.9 142.8 51.9L142.8 51.9Q142.0 51.9 141.5 52.2Q141.0 52.6 140.9 53.1L140.9 53.1L138.1 52.9Q138.3 51.9 138.9 51.2Q139.5 50.5 140.5 50.1Q141.5 49.7 142.8 49.7L142.8 49.7Q143.7 49.7 144.6 49.9Q145.4 50.1 146.1 50.5Q146.7 51.0 147.1 51.7Q147.5 52.4 147.5 53.4L147.5 53.4L147.5 60.7L144.6 60.7L144.6 59.2L144.5 59.2Q144.2 59.7 143.8 60.1Q143.4 60.5 142.7 60.7Q142.1 60.9 141.3 60.9ZM142.2 58.8L142.2 58.8Q142.8 58.8 143.4 58.6Q143.9 58.3 144.2 57.9Q144.5 57.4 144.5 56.8L144.5 56.8L144.5 55.7Q144.3 55.8 144.1 55.8Q143.8 55.9 143.5 56.0Q143.2 56.0 142.9 56.1Q142.6 56.1 142.3 56.2L142.3 56.2Q141.8 56.2 141.4 56.4Q141.0 56.6 140.8 56.9Q140.6 57.1 140.6 57.6L140.6 57.6Q140.6 58.2 141.0 58.5Q141.5 58.8 142.2 58.8ZM152.5 60.7L149.5 60.7L149.5 49.8L152.4 49.8L152.4 51.7L152.5 51.7Q152.8 50.7 153.5 50.2Q154.2 49.7 155.2 49.7L155.2 49.7Q155.4 49.7 155.6 49.7Q155.9 49.7 156.1 49.8L156.1 49.8L156.1 52.4Q155.9 52.4 155.5 52.3Q155.1 52.3 154.8 52.3L154.8 52.3Q154.2 52.3 153.6 52.6Q153.1 52.9 152.8 53.4Q152.5 53.9 152.5 54.5L152.5 54.5L152.5 60.7ZM166.4 52.9L166.4 52.9L163.6 53.1Q163.6 52.7 163.3 52.4Q163.1 52.2 162.7 52.0Q162.3 51.8 161.8 51.8L161.8 51.8Q161.1 51.8 160.6 52.1Q160.2 52.4 160.2 52.9L160.2 52.9Q160.2 53.3 160.5 53.6Q160.8 53.8 161.5 54.0L161.5 54.0L163.5 54.4Q165.1 54.7 165.9 55.4Q166.7 56.2 166.7 57.3L166.7 57.3Q166.7 58.4 166.0 59.2Q165.4 60.0 164.3 60.5Q163.2 60.9 161.8 60.9L161.8 60.9Q159.6 60.9 158.4 60.0Q157.1 59.1 156.9 57.6L156.9 57.6L159.8 57.4Q160.0 58.1 160.5 58.4Q161.0 58.8 161.8 58.8L161.8 58.8Q162.6 58.8 163.1 58.4Q163.6 58.1 163.6 57.6L163.6 57.6Q163.6 57.2 163.2 57.0Q162.9 56.7 162.2 56.6L162.2 56.6L160.3 56.2Q158.7 55.9 157.9 55.1Q157.2 54.3 157.2 53.1L157.2 53.1Q157.2 52.0 157.7 51.3Q158.3 50.5 159.3 50.1Q160.4 49.7 161.8 49.7L161.8 49.7Q163.8 49.7 165.0 50.5Q166.2 51.4 166.4 52.9ZM168.4 53.5L175.1 53.5L175.1 55.9L168.4 55.9L168.4 53.5ZM180.3 60.7L177.3 60.7L177.3 49.8L180.2 49.8L180.2 51.7L180.4 51.7Q180.7 50.7 181.4 50.2Q182.1 49.7 183.0 49.7L183.0 49.7Q183.2 49.7 183.5 49.7Q183.7 49.7 183.9 49.8L183.9 49.8L183.9 52.4Q183.7 52.4 183.3 52.3Q183.0 52.3 182.7 52.3L182.7 52.3Q182.0 52.3 181.5 52.6Q180.9 52.9 180.6 53.4Q180.3 53.9 180.3 54.5L180.3 54.5L180.3 60.7ZM189.6 60.9L189.6 60.9Q187.9 60.9 186.7 60.2Q185.5 59.6 184.9 58.3Q184.2 57.0 184.2 55.3L184.2 55.3Q184.2 53.6 184.9 52.4Q185.5 51.1 186.7 50.4Q187.9 49.7 189.5 49.7L189.5 49.7Q190.6 49.7 191.5 50.0Q192.5 50.4 193.2 51.0Q193.9 51.7 194.2 52.8Q194.6 53.8 194.6 55.2L194.6 55.2L194.6 56.0L185.4 56.0L185.4 54.2L191.8 54.2Q191.8 53.5 191.5 53.0Q191.2 52.5 190.7 52.2Q190.2 51.9 189.6 51.9L189.6 51.9Q188.9 51.9 188.3 52.2Q187.8 52.6 187.5 53.1Q187.2 53.6 187.2 54.3L187.2 54.3L187.2 56.0Q187.2 56.9 187.5 57.4Q187.8 58.0 188.4 58.4Q188.9 58.7 189.7 58.7L189.7 58.7Q190.2 58.7 190.6 58.5Q191.0 58.4 191.3 58.1Q191.6 57.8 191.8 57.4L191.8 57.4L194.6 57.6Q194.4 58.6 193.7 59.4Q193.0 60.1 192.0 60.5Q191.0 60.9 189.6 60.9ZM199.3 54.4L199.3 54.4L199.3 60.7L196.3 60.7L196.3 49.8L199.2 49.8L199.2 51.7L199.3 51.7Q199.7 50.8 200.5 50.2Q201.4 49.7 202.6 49.7L202.6 49.7Q203.7 49.7 204.6 50.2Q205.4 50.7 205.9 51.6Q206.3 52.5 206.3 53.8L206.3 53.8L206.3 60.7L203.3 60.7L203.3 54.3Q203.3 53.3 202.8 52.7Q202.3 52.2 201.4 52.2L201.4 52.2Q200.8 52.2 200.3 52.4Q199.8 52.7 199.6 53.2Q199.3 53.7 199.3 54.4ZM207.6 49.8L214.2 49.8L214.2 52.1L207.6 52.1L207.6 49.8ZM209.1 57.8L209.1 47.2L212.2 47.2L212.2 57.4Q212.2 57.8 212.3 58.0Q212.4 58.2 212.6 58.3Q212.9 58.4 213.2 58.4L213.2 58.4Q213.4 58.4 213.6 58.4Q213.8 58.4 213.9 58.3L213.9 58.3L214.4 60.6Q214.2 60.7 213.8 60.8Q213.4 60.8 212.8 60.9L212.8 60.9Q211.7 60.9 210.9 60.6Q210.0 60.2 209.6 59.5Q209.1 58.8 209.1 57.8L209.1 57.8ZM219.0 60.9L219.0 60.9Q217.9 60.9 217.1 60.6Q216.3 60.2 215.8 59.5Q215.3 58.8 215.3 57.7L215.3 57.7Q215.3 56.8 215.7 56.1Q216.0 55.5 216.6 55.2Q217.2 54.8 217.9 54.6Q218.6 54.4 219.4 54.3L219.4 54.3Q220.4 54.2 221.0 54.1Q221.6 54.0 221.8 53.9Q222.1 53.7 222.1 53.3L222.1 53.3L222.1 53.3Q222.1 52.6 221.7 52.2Q221.2 51.9 220.5 51.9L220.5 51.9Q219.6 51.9 219.2 52.2Q218.7 52.6 218.5 53.1L218.5 53.1L215.7 52.9Q215.9 51.9 216.6 51.2Q217.2 50.5 218.2 50.1Q219.2 49.7 220.5 49.7L220.5 49.7Q221.4 49.7 222.2 49.9Q223.1 50.1 223.7 50.5Q224.4 51.0 224.7 51.7Q225.1 52.4 225.1 53.4L225.1 53.4L225.1 60.7L222.2 60.7L222.2 59.2L222.2 59.2Q221.9 59.7 221.5 60.1Q221.0 60.5 220.4 60.7Q219.8 60.9 219.0 60.9ZM219.8 58.8L219.8 58.8Q220.5 58.8 221.0 58.6Q221.5 58.3 221.8 57.9Q222.1 57.4 222.1 56.8L222.1 56.8L222.1 55.7Q222.0 55.8 221.7 55.8Q221.5 55.9 221.2 56.0Q220.9 56.0 220.6 56.1Q220.3 56.1 220.0 56.2L220.0 56.2Q219.5 56.2 219.1 56.4Q218.7 56.6 218.5 56.9Q218.2 57.1 218.2 57.6L218.2 57.6Q218.2 58.2 218.7 58.5Q219.1 58.8 219.8 58.8ZM227.1 46.2L230.2 46.2L230.2 60.7L227.1 60.7L227.1 46.2Z "/>
    <mask id="satori_om-id-1">
        <rect x="247" y="124" width="550" height="152" fill="#fff"/>
    </mask>
    <rect x="247" y="124" width="550" height="152" fill="black"/>
    <path fill="white" d="M308.4 185.5L302.3 185.5L302.3 156.4L321.5 156.4L321.5 161.5L308.4 161.5L308.4 168.4L320.2 168.4L320.2 173.5L308.4 173.5L308.4 185.5ZM331.3 185.5L325.2 185.5L325.2 163.7L331.3 163.7L331.3 185.5ZM328.3 160.8L328.3 160.8Q326.9 160.8 326.0 159.9Q325.0 159.0 325.0 157.8L325.0 157.8Q325.0 156.5 326.0 155.6Q326.9 154.7 328.3 154.7L328.3 154.7Q329.6 154.7 330.6 155.6Q331.5 156.5 331.5 157.8L331.5 157.8Q331.5 159.0 330.6 159.9Q329.6 160.8 328.3 160.8ZM341.8 172.9L341.8 172.9L341.8 185.5L335.8 185.5L335.8 163.7L341.5 163.7L341.5 167.5L341.8 167.5Q342.5 165.6 344.2 164.5Q345.9 163.4 348.4 163.4L348.4 163.4Q350.6 163.4 352.3 164.4Q354.0 165.4 355.0 167.2Q355.9 169.0 355.9 171.6L355.9 171.6L355.9 185.5L349.8 185.5L349.8 172.7Q349.9 170.7 348.8 169.5Q347.8 168.4 346.0 168.4L346.0 168.4Q344.7 168.4 343.8 168.9Q342.9 169.5 342.4 170.5Q341.8 171.5 341.8 172.9ZM368.4 185.8L368.4 185.8Q365.9 185.8 363.9 184.5Q361.9 183.3 360.7 180.8Q359.5 178.2 359.5 174.6L359.5 174.6Q359.5 170.8 360.7 168.4Q361.9 165.9 363.9 164.6Q366.0 163.4 368.4 163.4L368.4 163.4Q370.2 163.4 371.4 164.0Q372.6 164.6 373.4 165.5Q374.2 166.4 374.6 167.3L374.6 167.3L374.7 167.3L374.7 156.4L380.8 156.4L380.8 185.5L374.8 185.5L374.8 182.0L374.6 182.0Q374.1 182.9 373.4 183.8Q372.6 184.7 371.4 185.2Q370.1 185.8 368.4 185.8ZM370.3 181.0L370.3 181.0Q371.8 181.0 372.8 180.2Q373.8 179.4 374.3 178.0Q374.9 176.5 374.9 174.6L374.9 174.6Q374.9 172.6 374.3 171.2Q373.8 169.7 372.8 169.0Q371.8 168.2 370.3 168.2L370.3 168.2Q368.8 168.2 367.8 169.0Q366.8 169.8 366.2 171.2Q365.7 172.7 365.7 174.6L365.7 174.6Q365.7 176.5 366.2 177.9Q366.8 179.4 367.8 180.2Q368.8 181.0 370.3 181.0Z M392.8 163.7L406.0 163.7L406.0 168.2L392.8 168.2L392.8 163.7ZM395.8 179.6L395.8 158.4L401.9 158.4L401.9 178.8Q401.9 179.6 402.1 180.1Q402.4 180.5 402.9 180.7Q403.3 180.9 403.9 180.9L403.9 180.9Q404.4 180.9 404.8 180.8Q405.2 180.7 405.4 180.7L405.4 180.7L406.4 185.2Q405.9 185.3 405.1 185.5Q404.3 185.7 403.1 185.8L403.1 185.8Q400.9 185.9 399.3 185.2Q397.6 184.5 396.7 183.1Q395.8 181.7 395.8 179.6L395.8 179.6ZM416.1 172.9L416.1 172.9L416.1 185.5L410.1 185.5L410.1 156.4L415.9 156.4L415.9 167.5L416.2 167.5Q416.9 165.6 418.6 164.5Q420.2 163.4 422.7 163.4L422.7 163.4Q425.0 163.4 426.7 164.4Q428.4 165.3 429.3 167.2Q430.3 169.0 430.3 171.6L430.3 171.6L430.3 185.5L424.2 185.5L424.2 172.7Q424.2 170.6 423.2 169.5Q422.2 168.4 420.3 168.4L420.3 168.4Q419.1 168.4 418.1 168.9Q417.2 169.5 416.7 170.5Q416.1 171.5 416.1 172.9ZM444.6 185.9L444.6 185.9Q441.3 185.9 438.9 184.5Q436.4 183.2 435.1 180.6Q433.8 178.1 433.8 174.7L433.8 174.7Q433.8 171.3 435.1 168.8Q436.4 166.2 438.8 164.8Q441.2 163.4 444.4 163.4L444.4 163.4Q446.6 163.4 448.4 164.1Q450.3 164.7 451.7 166.1Q453.1 167.5 453.9 169.6Q454.7 171.7 454.7 174.5L454.7 174.5L454.7 176.1L436.2 176.1L436.2 172.4L449.0 172.4Q449.0 171.1 448.4 170.0Q447.8 169.0 446.8 168.5Q445.8 167.9 444.5 167.9L444.5 167.9Q443.1 167.9 442.1 168.5Q441.0 169.2 440.4 170.2Q439.8 171.3 439.8 172.6L439.8 172.6L439.8 176.1Q439.8 177.7 440.4 178.9Q441.0 180.1 442.1 180.7Q443.2 181.4 444.7 181.4L444.7 181.4Q445.8 181.4 446.6 181.1Q447.4 180.8 448.0 180.2Q448.6 179.7 448.9 178.9L448.9 178.9L454.5 179.2Q454.1 181.2 452.8 182.7Q451.5 184.2 449.4 185.1Q447.3 185.9 444.6 185.9Z M472.9 185.5L466.9 185.5L466.9 156.4L473.0 156.4L473.0 167.3L473.1 167.3Q473.5 166.4 474.3 165.5Q475.1 164.6 476.3 164.0Q477.5 163.4 479.3 163.4L479.3 163.4Q481.7 163.4 483.8 164.6Q485.8 165.9 487.0 168.4Q488.2 170.8 488.2 174.6L488.2 174.6Q488.2 178.2 487.0 180.8Q485.8 183.3 483.8 184.5Q481.8 185.8 479.3 185.8L479.3 185.8Q477.6 185.8 476.3 185.2Q475.1 184.7 474.3 183.8Q473.6 182.9 473.1 182.0L473.1 182.0L472.9 182.0L472.9 185.5ZM472.8 174.6L472.8 174.6Q472.8 176.5 473.4 178.0Q473.9 179.4 474.9 180.2Q476.0 181.0 477.4 181.0L477.4 181.0Q478.9 181.0 479.9 180.2Q480.9 179.4 481.5 177.9Q482.0 176.5 482.0 174.6L482.0 174.6Q482.0 172.7 481.5 171.2Q481.0 169.8 479.9 169.0Q478.9 168.2 477.4 168.2L477.4 168.2Q475.9 168.2 474.9 169.0Q473.9 169.7 473.4 171.2Q472.8 172.6 472.8 174.6ZM501.8 185.9L501.8 185.9Q498.5 185.9 496.0 184.5Q493.6 183.2 492.3 180.6Q491.0 178.1 491.0 174.7L491.0 174.7Q491.0 171.3 492.3 168.8Q493.6 166.2 496.0 164.8Q498.4 163.4 501.6 163.4L501.6 163.4Q503.7 163.4 505.6 164.1Q507.5 164.7 508.9 166.1Q510.3 167.5 511.1 169.6Q511.8 171.7 511.8 174.5L511.8 174.5L511.8 176.1L493.4 176.1L493.4 172.4L506.1 172.4Q506.1 171.1 505.6 170.0Q505.0 169.0 504.0 168.5Q503.0 167.9 501.7 167.9L501.7 167.9Q500.3 167.9 499.2 168.5Q498.2 169.2 497.6 170.2Q497.0 171.3 497.0 172.6L497.0 172.6L497.0 176.1Q497.0 177.7 497.6 178.9Q498.2 180.1 499.3 180.7Q500.4 181.4 501.9 181.4L501.9 181.4Q502.9 181.4 503.8 181.1Q504.6 180.8 505.2 180.2Q505.8 179.7 506.1 178.9L506.1 178.9L511.7 179.2Q511.3 181.2 510.0 182.7Q508.7 184.2 506.6 185.1Q504.5 185.9 501.8 185.9ZM533.6 169.9L533.6 169.9L528.1 170.2Q527.9 169.5 527.5 168.9Q527.0 168.4 526.2 168.0Q525.5 167.7 524.4 167.7L524.4 167.7Q523.0 167.7 522.1 168.3Q521.1 168.8 521.1 169.8L521.1 169.8Q521.1 170.6 521.7 171.1Q522.3 171.7 523.9 172.0L523.9 172.0L527.8 172.8Q531.0 173.5 532.6 174.9Q534.1 176.4 534.1 178.7L534.1 178.7Q534.1 180.9 532.9 182.5Q531.6 184.1 529.4 185.0Q527.2 185.9 524.4 185.9L524.4 185.9Q520.1 185.9 517.5 184.1Q514.9 182.3 514.5 179.2L514.5 179.2L520.5 178.8Q520.7 180.2 521.8 180.9Q522.8 181.5 524.4 181.5L524.4 181.5Q526.0 181.5 527.0 180.9Q528.0 180.3 528.0 179.3L528.0 179.3Q528.0 178.5 527.3 178.0Q526.6 177.4 525.2 177.2L525.2 177.2L521.4 176.4Q518.2 175.8 516.6 174.2Q515.1 172.6 515.1 170.2L515.1 170.2Q515.1 168.1 516.2 166.5Q517.4 165.0 519.5 164.2Q521.5 163.4 524.3 163.4L524.3 163.4Q528.5 163.4 530.8 165.1Q533.2 166.9 533.6 169.9ZM536.1 163.7L549.2 163.7L549.2 168.2L536.1 168.2L536.1 163.7ZM539.1 179.6L539.1 158.4L545.1 158.4L545.1 178.8Q545.1 179.6 545.4 180.1Q545.6 180.5 546.1 180.7Q546.6 180.9 547.2 180.9L547.2 180.9Q547.6 180.9 548.0 180.8Q548.4 180.7 548.7 180.7L548.7 180.7L549.6 185.2Q549.2 185.3 548.3 185.5Q547.5 185.7 546.3 185.8L546.3 185.8Q544.2 185.9 542.5 185.2Q540.9 184.5 540.0 183.1Q539.1 181.7 539.1 179.6L539.1 179.6Z M571.7 185.9L571.7 185.9Q568.3 185.9 565.9 184.5Q563.5 183.0 562.2 180.5Q560.9 178.0 560.9 174.7L560.9 174.7Q560.9 171.3 562.2 168.8Q563.5 166.2 565.9 164.8Q568.3 163.4 571.6 163.4L571.6 163.4Q574.5 163.4 576.6 164.4Q578.8 165.4 580.0 167.3Q581.3 169.2 581.4 171.7L581.4 171.7L575.7 171.7Q575.4 170.1 574.4 169.1Q573.4 168.1 571.7 168.1L571.7 168.1Q570.3 168.1 569.3 168.8Q568.2 169.6 567.6 171.1Q567.1 172.5 567.1 174.6L567.1 174.6Q567.1 176.7 567.6 178.1Q568.2 179.6 569.3 180.3Q570.3 181.1 571.7 181.1L571.7 181.1Q572.8 181.1 573.6 180.7Q574.4 180.3 575.0 179.4Q575.5 178.6 575.7 177.5L575.7 177.5L581.4 177.5Q581.3 180.0 580.0 181.9Q578.8 183.8 576.7 184.8Q574.6 185.9 571.7 185.9ZM591.2 185.9L591.2 185.9Q589.1 185.9 587.5 185.2Q585.8 184.4 584.9 183.0Q583.9 181.5 583.9 179.4L583.9 179.4Q583.9 177.6 584.6 176.3Q585.3 175.1 586.4 174.3Q587.6 173.6 589.1 173.2Q590.5 172.8 592.1 172.7L592.1 172.7Q594.0 172.5 595.2 172.3Q596.4 172.1 596.9 171.8Q597.4 171.4 597.4 170.7L597.4 170.7L597.4 170.6Q597.4 169.3 596.6 168.5Q595.7 167.8 594.2 167.8L594.2 167.8Q592.6 167.8 591.6 168.5Q590.6 169.2 590.3 170.3L590.3 170.3L584.7 169.8Q585.1 167.9 586.4 166.4Q587.6 164.9 589.6 164.2Q591.6 163.4 594.2 163.4L594.2 163.4Q596.0 163.4 597.7 163.8Q599.4 164.2 600.7 165.1Q602.0 166.0 602.7 167.4Q603.5 168.8 603.5 170.8L603.5 170.8L603.5 185.5L597.7 185.5L597.7 182.4L597.6 182.4Q597.0 183.5 596.2 184.2Q595.3 185.0 594.0 185.5Q592.8 185.9 591.2 185.9ZM592.9 181.7L592.9 181.7Q594.3 181.7 595.3 181.2Q596.3 180.6 596.9 179.7Q597.5 178.8 597.5 177.7L597.5 177.7L597.5 175.4Q597.2 175.5 596.7 175.7Q596.2 175.8 595.6 176.0Q595.0 176.1 594.4 176.2Q593.8 176.3 593.3 176.3L593.3 176.3Q592.2 176.5 591.4 176.8Q590.6 177.2 590.2 177.8Q589.7 178.3 589.7 179.2L589.7 179.2Q589.7 180.4 590.6 181.1Q591.5 181.7 592.9 181.7ZM613.9 185.5L607.9 185.5L607.9 163.7L613.7 163.7L613.7 167.5L614.0 167.5Q614.6 165.4 616.0 164.4Q617.4 163.3 619.2 163.3L619.2 163.3Q619.7 163.3 620.2 163.4Q620.7 163.5 621.1 163.6L621.1 163.6L621.1 168.9Q620.7 168.8 619.9 168.7Q619.2 168.6 618.5 168.6L618.5 168.6Q617.2 168.6 616.2 169.2Q615.1 169.7 614.5 170.8Q613.9 171.8 613.9 173.1L613.9 173.1L613.9 185.5Z M638.9 185.5L632.8 185.5L632.8 163.7L638.7 163.7L638.7 167.5L638.9 167.5Q639.5 165.4 640.9 164.4Q642.3 163.3 644.2 163.3L644.2 163.3Q644.6 163.3 645.2 163.4Q645.7 163.5 646.1 163.6L646.1 163.6L646.1 168.9Q645.7 168.8 644.9 168.7Q644.2 168.6 643.5 168.6L643.5 168.6Q642.2 168.6 641.1 169.2Q640.1 169.7 639.5 170.8Q638.9 171.8 638.9 173.1L638.9 173.1L638.9 185.5ZM657.8 185.9L657.8 185.9Q654.4 185.9 652.0 184.5Q649.6 183.2 648.3 180.6Q647.0 178.1 647.0 174.7L647.0 174.7Q647.0 171.3 648.3 168.8Q649.6 166.2 652.0 164.8Q654.3 163.4 657.6 163.4L657.6 163.4Q659.7 163.4 661.6 164.1Q663.5 164.7 664.8 166.1Q666.2 167.5 667.0 169.6Q667.8 171.7 667.8 174.5L667.8 174.5L667.8 176.1L649.4 176.1L649.4 172.4L662.1 172.4Q662.1 171.1 661.5 170.0Q661.0 169.0 660.0 168.5Q659.0 167.9 657.7 167.9L657.7 167.9Q656.3 167.9 655.2 168.5Q654.2 169.2 653.6 170.2Q653.0 171.3 653.0 172.6L653.0 172.6L653.0 176.1Q653.0 177.7 653.6 178.9Q654.2 180.1 655.3 180.7Q656.4 181.4 657.9 181.4L657.9 181.4Q658.9 181.4 659.7 181.1Q660.6 180.8 661.2 180.2Q661.8 179.7 662.1 178.9L662.1 178.9L667.7 179.2Q667.3 181.2 665.9 182.7Q664.6 184.2 662.6 185.1Q660.5 185.9 657.8 185.9ZM677.5 172.9L677.5 172.9L677.5 185.5L671.4 185.5L671.4 163.7L677.2 163.7L677.2 167.5L677.5 167.5Q678.2 165.6 679.9 164.5Q681.6 163.4 684.0 163.4L684.0 163.4Q686.3 163.4 688.0 164.4Q689.7 165.4 690.6 167.2Q691.6 169.0 691.6 171.6L691.6 171.6L691.6 185.5L685.5 185.5L685.5 172.7Q685.5 170.7 684.5 169.5Q683.4 168.4 681.6 168.4L681.6 168.4Q680.4 168.4 679.5 168.9Q678.5 169.5 678.0 170.5Q677.5 171.5 677.5 172.9ZM694.5 163.7L707.6 163.7L707.6 168.2L694.5 168.2L694.5 163.7ZM697.4 179.6L697.4 158.4L703.5 158.4L703.5 178.8Q703.5 179.6 703.7 180.1Q704.0 180.5 704.5 180.7Q704.9 180.9 705.5 180.9L705.5 180.9Q706.0 180.9 706.4 180.8Q706.8 180.7 707.0 180.7L707.0 180.7L708.0 185.2Q707.5 185.3 706.7 185.5Q705.9 185.7 704.7 185.8L704.7 185.8Q702.5 185.9 700.9 185.2Q699.2 184.5 698.3 183.1Q697.4 181.7 697.4 179.6L697.4 179.6ZM717.4 185.9L717.4 185.9Q715.3 185.9 713.7 185.2Q712.1 184.4 711.1 183.0Q710.2 181.5 710.2 179.4L710.2 179.4Q710.2 177.6 710.9 176.3Q711.5 175.1 712.7 174.3Q713.8 173.6 715.3 173.2Q716.8 172.8 718.4 172.7L718.4 172.7Q720.3 172.5 721.5 172.3Q722.6 172.1 723.1 171.8Q723.7 171.4 723.7 170.7L723.7 170.7L723.7 170.6Q723.7 169.3 722.8 168.5Q722.0 167.8 720.4 167.8L720.4 167.8Q718.8 167.8 717.8 168.5Q716.9 169.2 716.6 170.3L716.6 170.3L711.0 169.8Q711.4 167.9 712.6 166.4Q713.9 164.9 715.9 164.2Q717.8 163.4 720.5 163.4L720.5 163.4Q722.3 163.4 723.9 163.8Q725.6 164.2 726.9 165.1Q728.2 166.0 729.0 167.4Q729.7 168.8 729.7 170.8L729.7 170.8L729.7 185.5L724.0 185.5L724.0 182.4L723.8 182.4Q723.3 183.5 722.4 184.2Q721.5 185.0 720.3 185.5Q719.1 185.9 717.4 185.9ZM719.2 181.7L719.2 181.7Q720.5 181.7 721.5 181.2Q722.5 180.6 723.1 179.7Q723.7 178.8 723.7 177.7L723.7 177.7L723.7 175.4Q723.4 175.5 722.9 175.7Q722.4 175.8 721.8 176.0Q721.2 176.1 720.6 176.2Q720.0 176.3 719.5 176.3L719.5 176.3Q718.4 176.5 717.6 176.8Q716.9 177.2 716.4 177.8Q716.0 178.3 716.0 179.2L716.0 179.2Q716.0 180.4 716.9 181.1Q717.8 181.7 719.2 181.7ZM734.1 156.4L740.2 156.4L740.2 185.5L734.1 185.5L734.1 156.4Z M474.0 242.3L474.0 242.3Q471.5 242.3 469.5 241.0Q467.5 239.7 466.3 237.2Q465.2 234.7 465.2 231.1L465.2 231.1Q465.2 227.3 466.4 224.8Q467.6 222.3 469.6 221.1Q471.6 219.8 474.0 219.8L474.0 219.8Q475.8 219.8 477.1 220.5Q478.3 221.1 479.1 222.0Q479.8 222.9 480.2 223.8L480.2 223.8L480.4 223.8L480.4 212.9L486.4 212.9L486.4 242.0L480.5 242.0L480.5 238.5L480.2 238.5Q479.8 239.4 479.0 240.3Q478.2 241.1 477.0 241.7Q475.8 242.3 474.0 242.3ZM475.9 237.5L475.9 237.5Q477.4 237.5 478.4 236.7Q479.4 235.9 480.0 234.4Q480.5 233.0 480.5 231.0L480.5 231.0Q480.5 229.1 480.0 227.7Q479.4 226.2 478.4 225.4Q477.4 224.7 475.9 224.7L475.9 224.7Q474.4 224.7 473.4 225.5Q472.4 226.3 471.9 227.7Q471.4 229.2 471.4 231.0L471.4 231.0Q471.4 232.9 471.9 234.4Q472.4 235.9 473.4 236.7Q474.4 237.5 475.9 237.5ZM501.0 242.4L501.0 242.4Q497.7 242.4 495.2 241.0Q492.8 239.6 491.5 237.1Q490.2 234.6 490.2 231.1L490.2 231.1Q490.2 227.8 491.5 225.2Q492.8 222.7 495.2 221.3Q497.6 219.8 500.8 219.8L500.8 219.8Q502.9 219.8 504.8 220.5Q506.7 221.2 508.1 222.6Q509.5 224.0 510.3 226.1Q511.0 228.1 511.0 230.9L511.0 230.9L511.0 232.6L492.6 232.6L492.6 228.8L505.3 228.8Q505.3 227.5 504.8 226.5Q504.2 225.5 503.2 224.9Q502.2 224.4 500.9 224.4L500.9 224.4Q499.5 224.4 498.4 225.0Q497.4 225.6 496.8 226.7Q496.2 227.7 496.2 229.0L496.2 229.0L496.2 232.6Q496.2 234.2 496.8 235.4Q497.4 236.6 498.5 237.2Q499.6 237.9 501.1 237.9L501.1 237.9Q502.1 237.9 503.0 237.6Q503.8 237.3 504.4 236.7Q505.0 236.2 505.3 235.3L505.3 235.3L510.9 235.7Q510.5 237.7 509.2 239.2Q507.9 240.7 505.8 241.5Q503.7 242.4 501.0 242.4ZM520.9 242.4L520.9 242.4Q518.8 242.4 517.2 241.6Q515.5 240.9 514.6 239.5Q513.6 238.0 513.6 235.9L513.6 235.9Q513.6 234.0 514.3 232.8Q515.0 231.6 516.1 230.8Q517.3 230.1 518.7 229.7Q520.2 229.3 521.8 229.1L521.8 229.1Q523.7 228.9 524.9 228.8Q526.1 228.6 526.6 228.2Q527.1 227.9 527.1 227.2L527.1 227.2L527.1 227.1Q527.1 225.7 526.3 225.0Q525.4 224.3 523.9 224.3L523.9 224.3Q522.2 224.3 521.3 225.0Q520.3 225.7 520.0 226.8L520.0 226.8L514.4 226.3Q514.8 224.3 516.1 222.9Q517.3 221.4 519.3 220.6Q521.3 219.8 523.9 219.8L523.9 219.8Q525.7 219.8 527.4 220.3Q529.1 220.7 530.4 221.6Q531.7 222.5 532.4 223.9Q533.2 225.3 533.2 227.2L533.2 227.2L533.2 242.0L527.4 242.0L527.4 238.9L527.3 238.9Q526.7 239.9 525.9 240.7Q525.0 241.5 523.7 241.9Q522.5 242.4 520.9 242.4ZM522.6 238.2L522.6 238.2Q524.0 238.2 525.0 237.7Q526.0 237.1 526.6 236.2Q527.2 235.3 527.2 234.2L527.2 234.2L527.2 231.8Q526.9 232.0 526.4 232.2Q525.9 232.3 525.3 232.4Q524.7 232.6 524.1 232.7Q523.5 232.7 523.0 232.8L523.0 232.8Q521.9 233.0 521.1 233.3Q520.3 233.7 519.9 234.2Q519.4 234.8 519.4 235.7L519.4 235.7Q519.4 236.9 520.3 237.5Q521.2 238.2 522.6 238.2ZM537.6 212.9L543.6 212.9L543.6 242.0L537.6 242.0L537.6 212.9ZM566.3 226.4L566.3 226.4L560.7 226.7Q560.6 226.0 560.1 225.4Q559.6 224.8 558.9 224.5Q558.1 224.1 557.1 224.1L557.1 224.1Q555.7 224.1 554.7 224.7Q553.7 225.3 553.7 226.3L553.7 226.3Q553.7 227.1 554.4 227.6Q555.0 228.2 556.5 228.5L556.5 228.5L560.5 229.3Q563.6 229.9 565.2 231.4Q566.8 232.8 566.8 235.2L566.8 235.2Q566.8 237.3 565.5 239.0Q564.2 240.6 562.1 241.5Q559.9 242.4 557.0 242.4L557.0 242.4Q552.7 242.4 550.2 240.6Q547.6 238.8 547.1 235.6L547.1 235.6L553.1 235.3Q553.4 236.6 554.4 237.3Q555.4 238.0 557.1 238.0L557.1 238.0Q558.7 238.0 559.6 237.4Q560.6 236.8 560.6 235.8L560.6 235.8Q560.6 235.0 559.9 234.4Q559.2 233.9 557.8 233.6L557.8 233.6L554.0 232.9Q550.8 232.2 549.3 230.7Q547.7 229.1 547.7 226.6L547.7 226.6Q547.7 224.5 548.9 223.0Q550.0 221.5 552.1 220.7Q554.2 219.8 557.0 219.8L557.0 219.8Q561.1 219.8 563.5 221.6Q565.9 223.3 566.3 226.4ZM573.8 242.3L573.8 242.3Q572.4 242.3 571.4 241.3Q570.4 240.3 570.4 238.9L570.4 238.9Q570.4 237.5 571.4 236.5Q572.4 235.5 573.8 235.5L573.8 235.5Q575.2 235.5 576.2 236.5Q577.2 237.5 577.2 238.9L577.2 238.9Q577.2 239.8 576.7 240.6Q576.3 241.4 575.5 241.9Q574.7 242.3 573.8 242.3Z "/>
</svg>